<?xml version="1.0" encoding="UTF-8" standalone="no" ?>
<!DOCTYPE svg PUBLIC "-//W3C//DTD SVG 1.1//EN" "http://www.w3.org/Graphics/SVG/1.1/DTD/svg11.dtd">
<svg xmlns="http://www.w3.org/2000/svg" xmlns:xlink="http://www.w3.org/1999/xlink" version="1.1" width="1280" height="1024" viewBox="0 0 1280 1024" xml:space="preserve">
<desc>Created with Fabric.js 5.3.0</desc>
<defs>
</defs>
<g transform="matrix(1 0 0 1 640 512)" id="background-logo"  >
<rect style="stroke: none; stroke-width: 0; stroke-dasharray: none; stroke-linecap: butt; stroke-dashoffset: 0; stroke-linejoin: miter; stroke-miterlimit: 4; fill: rgb(255,255,255); fill-rule: nonzero; opacity: 1;"  paint-order="stroke"  x="-640" y="-512" rx="0" ry="0" width="1280" height="1024" />
</g>
<g transform="matrix(2.2001561004855077 0 0 2.2001561004855077 640 397.3767121804856)" id="logo-logo"  >
<g style=""  paint-order="stroke"   >
		<g transform="matrix(0.7722979079497904 0 0 0.7722979079497903 0 -32.590971715481146)"  >
<path style="stroke: none; stroke-width: 1; stroke-dasharray: none; stroke-linecap: butt; stroke-dashoffset: 0; stroke-linejoin: miter; stroke-miterlimit: 4; fill: rgb(9,39,92); fill-rule: nonzero; opacity: 1;"  paint-order="stroke"  transform=" translate(-300.04999999999995, -257.79999999999995)" d="M 430.8 250.2 L 351.20000000000005 250.2 L 300 199 L 300 209.2 L 355.1 264.3 L 430.8 264.3 C 430.8 269 430.8 273.7 430.8 278.40000000000003 L 351.20000000000005 278.40000000000003 L 300 227.1 L 300 237.29999999999998 L 355.1 292.4 L 430.8 292.4 C 430.8 297.09999999999997 430.8 301.79999999999995 430.8 306.5 L 351.20000000000005 306.5 L 300 255.2 L 300 273.09999999999997 L 238.6 334.49999999999994 L 169.2 334.49999999999994 C 169.2 305.09999999999997 169.2 265.49999999999994 169.2 236.09999999999994 L 234.7 236.09999999999994 L 206.6 264.19999999999993 L 216.79999999999998 264.19999999999993 C 244.6 236.39999999999992 272.29999999999995 208.69999999999993 300.09999999999997 180.99999999999994 L 355.2 236.09999999999994 L 430.9 236.09999999999994 C 430.8 240.9 430.8 245.5 430.8 250.2 z M 430.8 320.5 L 347.3 320.5 L 361.40000000000003 334.6 L 430.80000000000007 334.6 L 430.80000000000007 320.5 z" stroke-linecap="round" />
</g>
		<g transform="matrix(0.7722979079497904 0 0 0.7722979079497903 -0.03861489539747254 43.09422326359834)"  >
<path style="stroke: none; stroke-width: 1; stroke-dasharray: none; stroke-linecap: butt; stroke-dashoffset: 0; stroke-linejoin: miter; stroke-miterlimit: 4; fill: rgb(186,2,14); fill-rule: evenodd; opacity: 1;"  paint-order="stroke"  transform=" translate(-300, -355.8)" d="M 238.6 362.7 L 169.2 362.7 L 169.2 348.59999999999997 L 238.6 348.59999999999997 L 238.6 362.7 z M 321.6 342.6 L 307.20000000000005 342.6 L 307.20000000000005 292.6 L 293.90000000000003 315.70000000000005 L 278.40000000000003 342.6 L 292.8 342.6 L 292.8 392.6 L 306.1 369.5 L 321.6 342.6 L 321.6 342.6 z M 430.8 419 L 169.2 419 L 169.2 404.9 L 430.8 404.9 L 430.8 419 z M 430.8 390.8 L 361.4 390.8 L 361.4 376.7 L 430.79999999999995 376.7 L 430.79999999999995 390.8 z M 430.8 362.7 L 361.4 362.7 L 361.4 348.59999999999997 L 430.79999999999995 348.59999999999997 L 430.79999999999995 362.7 z M 238.6 390.8 L 169.2 390.8 L 169.2 376.7 L 238.6 376.7 L 238.6 390.8 L 238.6 390.8 z" stroke-linecap="round" />
</g>
</g>
</g>
<g transform="matrix(1.9211538461538462 0 0 1.9211538461538462 639.8501500000001 685.2854899733605)" id="text-logo"  >
<g style=""  paint-order="stroke"   >
		<g transform="matrix(1 0 0 1 0 0)" id="text-logo-path-0"  >
<path style="stroke: none; stroke-width: 0; stroke-dasharray: none; stroke-linecap: butt; stroke-dashoffset: 0; stroke-linejoin: miter; stroke-miterlimit: 4; fill: rgb(9,39,92); fill-rule: nonzero; opacity: 1;"  paint-order="stroke"  transform=" translate(-242.89, 18.2)" d="M 2.6 0 L 32.24 0 L 32.24 -7.28 L 11.44 -7.28 L 11.44 -14.56 L 27.04 -14.56 L 27.04 -21.84 L 11.44 -21.84 L 11.44 -29.12 L 32.24 -29.12 L 32.24 -36.4 L 2.6 -36.4 Z M 40.56 0 L 70.2 0 L 70.2 -7.28 L 49.4 -7.28 L 49.4 -36.4 L 40.56 -36.4 Z M 78.52 0 L 108.16 0 L 108.16 -7.28 L 87.36 -7.28 L 87.36 -14.56 L 102.96 -14.56 L 102.96 -21.84 L 87.36 -21.84 L 87.36 -29.12 L 108.16 -29.12 L 108.16 -36.4 L 78.52 -36.4 Z M 135.25 0.52 C 147.11 0.52 153.04 -3.8 153.04 -12.43 L 144.2 -12.43 C 144.2 -8.68 140.04 -6.76 135.25 -6.76 C 128.54 -6.76 125.32 -10.19 125.32 -18.25 C 125.32 -26 128.34 -29.64 135.25 -29.64 C 140.3 -29.64 144.25 -28.08 144.25 -23.92 L 153.09 -23.92 C 152.46 -32.6 145.65 -36.92 135.25 -36.92 C 122.56 -36.92 116.48 -31.2 116.48 -18.25 C 116.48 -5.56 122.2 0.52 135.25 0.52 Z M 172.85 0 L 181.69 0 L 181.69 -29.12 L 193.13 -29.12 L 193.13 -36.4 L 161.41 -36.4 L 161.41 -29.12 L 172.85 -29.12 Z M 201.45 0 L 210.29 0 L 210.29 -11.96 L 216.89 -11.96 L 223.81 0 L 233.17 0 L 225.78 -12.79 C 230.26 -14.35 232.49 -18.2 232.49 -24.28 C 232.49 -32.34 228.44 -36.4 220.32 -36.4 L 201.45 -36.4 Z M 220.27 -19.24 L 210.29 -19.24 L 210.29 -29.12 L 220.27 -29.12 C 222.4 -29.12 223.65 -27.51 223.65 -24.23 C 223.65 -20.9 222.51 -19.24 220.27 -19.24 Z M 260.26 0.52 C 272.69 0.52 278.93 -5.51 278.93 -18.25 C 278.93 -30.73 273.1 -36.92 260.26 -36.92 C 247.73 -36.92 241.49 -31.1 241.49 -18.25 C 241.49 -5.72 247.36 0.52 260.26 0.52 Z M 250.33 -18.25 C 250.33 -25.9 253.45 -29.64 260.26 -29.64 C 266.76 -29.64 270.09 -26 270.09 -18.25 C 270.09 -10.56 267.07 -6.76 260.26 -6.76 C 253.6 -6.76 250.33 -10.35 250.33 -18.25 Z M 300.77 0 L 330.41 0 L 330.41 -7.28 L 309.61 -7.28 L 309.61 -36.4 L 300.77 -36.4 Z M 357.5 0.52 C 369.93 0.52 376.17 -5.51 376.17 -18.25 C 376.17 -30.73 370.34 -36.92 357.5 -36.92 C 344.97 -36.92 338.73 -31.1 338.73 -18.25 C 338.73 -5.72 344.6 0.52 357.5 0.52 Z M 347.57 -18.25 C 347.57 -25.9 350.69 -29.64 357.5 -29.64 C 364 -29.64 367.33 -26 367.33 -18.25 C 367.33 -10.56 364.31 -6.76 357.5 -6.76 C 350.84 -6.76 347.57 -10.35 347.57 -18.25 Z M 403.26 0.52 C 414.86 0.52 420.78 -3.64 421.04 -11.91 L 421.04 -19.19 L 404.35 -19.19 L 404.35 -11.91 L 412.15 -11.91 C 411.79 -8.53 407.84 -6.76 403.26 -6.76 C 396.55 -6.76 393.33 -10.19 393.33 -18.25 C 393.33 -26 396.34 -29.64 403.26 -29.64 C 408.3 -29.64 412.26 -28.08 412.26 -23.92 L 421.1 -23.92 C 420.47 -32.6 413.66 -36.92 403.26 -36.92 C 390.57 -36.92 384.49 -31.2 384.49 -18.25 C 384.49 -5.56 390.21 0.52 403.26 0.52 Z M 429.42 0 L 438.26 0 L 438.26 -36.4 L 429.42 -36.4 Z M 465.35 0.52 C 477.2 0.52 483.13 -3.8 483.13 -12.43 L 474.29 -12.43 C 474.29 -8.68 470.13 -6.76 465.35 -6.76 C 458.64 -6.76 455.42 -10.19 455.42 -18.25 C 455.42 -26 458.43 -29.64 465.35 -29.64 C 470.39 -29.64 474.34 -28.08 474.34 -23.92 L 483.18 -23.92 C 482.56 -32.6 475.75 -36.92 465.35 -36.92 C 452.66 -36.92 446.58 -31.2 446.58 -18.25 C 446.58 -5.56 452.3 0.52 465.35 0.52 Z" stroke-linecap="round" />
</g>
</g>
</g>
<g transform="matrix(1.9211538461538462 0 0 1.9211538461538462 640.0129677884615 773.4328313195144)" id="tagline-d98d15b7-39bb-4859-bfd2-7bb145cd274a-logo"  >
<g style=""  paint-order="stroke"   >
		<g transform="matrix(1 0 0 1 0 0)" id="tagline-d98d15b7-39bb-4859-bfd2-7bb145cd274a-logo-path-0"  >
<path style="stroke: none; stroke-width: 0; stroke-dasharray: none; stroke-linecap: butt; stroke-dashoffset: 0; stroke-linejoin: miter; stroke-miterlimit: 4; fill: rgb(186,2,14); fill-rule: nonzero; opacity: 1;"  paint-order="stroke"  transform=" translate(-109.255, 9.1)" d="M 1.35 0 L 14.31 0 L 14.31 -3.78 L 5.67 -3.78 L 5.67 -7.16 L 12.69 -7.16 L 12.69 -10.94 L 5.67 -10.94 L 5.67 -14.31 L 14.31 -14.31 L 14.31 -18.09 L 1.35 -18.09 Z M 37.99 -18.36 C 33.8 -18.36 30.94 -16.17 30.94 -12.74 C 30.94 -10.02 32.53 -8.29 35.72 -7.59 L 39.45 -6.78 C 40.63 -6.53 41.23 -6.1 41.23 -5.48 C 41.23 -4.54 40.31 -4.05 38.48 -4.05 C 36.99 -4.05 35.48 -4.91 34.97 -6.29 L 30.51 -4.72 C 31.27 -1.48 34.34 0.27 38.23 0.27 C 40.74 0.27 43.12 -0.54 44.52 -2.29 C 45.23 -3.16 45.58 -4.24 45.58 -5.51 C 45.58 -8.23 43.96 -9.96 40.69 -10.69 L 36.99 -11.53 C 36.05 -11.74 35.4 -12.18 35.4 -12.74 C 35.4 -13.69 36.5 -14.04 37.94 -14.04 C 39.69 -14.04 40.82 -13.61 41.07 -12.12 L 45.23 -13.74 C 44.33 -16.77 41.55 -18.36 37.99 -18.36 Z M 70.96 0 L 70.96 -14.34 L 75.82 -14.34 L 75.82 -18.12 L 61.78 -18.12 L 61.78 -14.34 L 66.64 -14.34 L 66.64 0 Z M 94.04 0.27 C 95.15 0.27 96.04 -0.59 96.04 -1.78 C 96.04 -2.89 95.2 -3.78 94.04 -3.78 C 92.88 -3.78 92.02 -2.97 92.02 -1.78 C 92.02 -0.62 92.85 0.27 94.04 0.27 Z M 112.75 0 L 125.28 0 L 125.28 -3.78 L 119.5 -3.78 L 121.63 -5.8 C 124.04 -8.07 125.39 -9.91 125.39 -12.47 C 125.39 -15.96 122.88 -18.5 118.99 -18.5 C 114.97 -18.5 111.97 -15.42 112.27 -11.23 L 116.18 -10.94 C 116.15 -13.34 117.13 -14.53 118.99 -14.53 C 120.58 -14.53 121.31 -13.85 121.31 -12.47 C 121.31 -11.93 121.15 -11.45 120.82 -10.99 C 120.47 -10.53 119.8 -9.77 118.8 -8.78 L 113.86 -3.78 L 112.75 -2.67 Z M 149.09 0.3 C 153.33 0.3 156.6 -3.59 156.6 -9.04 C 156.6 -14.47 153.28 -18.39 149.09 -18.39 C 144.85 -18.39 141.59 -14.5 141.59 -9.04 C 141.59 -3.62 144.91 0.3 149.09 0.3 Z M 145.91 -9.04 C 145.91 -11.85 147.18 -14.04 149.09 -14.04 C 151.01 -14.04 152.28 -11.85 152.28 -9.04 C 152.28 -6.24 150.96 -4.08 149.09 -4.08 C 147.18 -4.08 145.91 -6.24 145.91 -9.04 Z M 173.31 0 L 185.84 0 L 185.84 -3.78 L 180.06 -3.78 L 182.2 -5.8 C 184.6 -8.07 185.95 -9.91 185.95 -12.47 C 185.95 -15.96 183.44 -18.5 179.55 -18.5 C 175.53 -18.5 172.53 -15.42 172.83 -11.23 L 176.74 -10.94 C 176.71 -13.34 177.69 -14.53 179.55 -14.53 C 181.14 -14.53 181.87 -13.85 181.87 -12.47 C 181.87 -11.93 181.71 -11.45 181.39 -10.99 C 181.03 -10.53 180.36 -9.77 179.36 -8.78 L 174.42 -3.78 L 173.31 -2.67 Z M 209.65 0.3 C 213.89 0.3 217.16 -3.59 217.16 -9.04 C 217.16 -14.47 213.84 -18.39 209.65 -18.39 C 205.42 -18.39 202.15 -14.5 202.15 -9.04 C 202.15 -3.62 205.47 0.3 209.65 0.3 Z M 206.47 -9.04 C 206.47 -11.85 207.74 -14.04 209.65 -14.04 C 211.57 -14.04 212.84 -11.85 212.84 -9.04 C 212.84 -6.24 211.52 -4.08 209.65 -4.08 C 207.74 -4.08 206.47 -6.24 206.47 -9.04 Z" stroke-linecap="round" />
</g>
</g>
</g>
</svg>